<?xml version="1.0" standalone="no"?>
<!DOCTYPE svg PUBLIC "-//W3C//DTD SVG 20010904//EN"
 "http://www.w3.org/TR/2001/REC-SVG-20010904/DTD/svg10.dtd">
<svg version="1.0" xmlns="http://www.w3.org/2000/svg"
 width="140.000000pt" height="70.000000pt" viewBox="0 0 140.000000 70.000000"
 preserveAspectRatio="xMidYMid meet">
<metadata>
Created by potrace 1.10, written by Peter Selinger 2001-2011
</metadata>
<g transform="translate(0.000000,70.000000) scale(0.100000,-0.100000)"
fill="#000000" stroke="none">
<path d="M144 636 c-3 -14 -4 -54 -2 -90 3 -61 2 -66 -18 -66 -48 0 -70 -64
-34 -100 18 -18 33 -20 185 -20 l164 0 3 -117 3 -118 65 0 65 0 3 118 c2 107
4 117 22 117 28 0 50 28 50 64 0 38 -15 56 -47 56 -21 0 -22 4 -25 88 l-3 87
-65 0 -65 0 -3 -87 -3 -88 -77 0 -77 0 3 75 c5 96 -2 105 -79 105 -54 0 -59
-2 -65 -24z m110 -28 c3 -13 7 -47 10 -75 l5 -53 -54 0 -53 0 5 63 c6 85 8 87
47 87 29 0 36 -4 40 -22z m297 -38 c3 -30 9 -63 13 -72 7 -16 1 -18 -54 -18
-55 0 -61 2 -55 18 4 9 9 37 12 62 6 68 9 72 45 68 32 -3 33 -5 39 -58z m-191
-123 c30 0 85 3 122 8 76 9 131 -6 126 -34 -6 -30 -48 -42 -123 -35 -88 8
-159 8 -255 0 -65 -6 -78 -4 -99 12 -47 38 3 65 104 56 39 -4 95 -7 125 -7z
m204 -104 c-4 -10 -10 -56 -13 -103 l-6 -85 -33 -3 c-38 -4 -40 -1 -45 98 -2
41 -7 83 -11 93 -7 15 -1 17 54 17 56 0 61 -2 54 -17z"/>
<path d="M140 251 c0 -55 3 -106 6 -115 9 -23 129 -23 138 0 9 25 7 202 -3
208 -14 9 -21 -21 -21 -97 0 -87 -7 -99 -51 -95 l-34 3 -3 75 c-2 88 -9 120
-22 120 -6 0 -10 -41 -10 -99z"/>
<path d="M710 341 c0 -5 9 -7 20 -4 25 7 25 0 0 -72 -20 -57 -20 -93 -1 -41 8
20 17 26 41 26 24 0 30 -4 31 -22 1 -21 2 -20 11 5 5 15 17 27 26 27 14 0 14
2 3 9 -11 7 -11 15 -2 42 6 18 9 34 7 37 -3 2 -10 -15 -17 -37 -8 -29 -16 -38
-23 -31 -5 5 -20 10 -33 10 -20 0 -21 3 -13 26 14 35 14 34 -20 34 -16 0 -30
-4 -30 -9z"/>
<path d="M337 312 c-25 -27 -21 -60 8 -74 21 -9 28 -8 45 7 26 24 25 50 -2 69
-28 20 -31 20 -51 -2z"/>
<path d="M960 275 c0 -7 -9 -23 -21 -36 -15 -17 -19 -19 -15 -6 8 25 -3 47
-24 47 -24 0 -42 -24 -38 -52 5 -37 51 -33 88 8 37 41 53 44 39 7 -10 -27 2
-55 15 -34 4 6 3 11 -3 11 -7 0 -7 8 -1 26 13 33 14 31 -15 36 -16 3 -25 1
-25 -7z m-49 -18 c-1 -4 -1 -13 -1 -21 0 -20 -30 -29 -36 -11 -7 17 14 47 28
43 5 -2 9 -7 9 -11z"/>
<path d="M1036 258 c-9 -35 -7 -60 4 -53 6 4 8 10 5 15 -3 5 -1 20 5 34 5 14
6 26 1 26 -5 0 -11 -10 -15 -22z"/>
<path d="M1085 270 c-3 -6 1 -7 9 -4 10 4 16 1 16 -9 0 -8 -8 -18 -17 -21 -13
-5 -14 -9 -5 -15 9 -5 5 -14 -13 -31 -27 -26 -33 -60 -10 -60 8 0 25 22 38 49
16 35 19 47 9 43 -12 -4 -11 0 2 20 9 13 13 28 9 31 -10 10 -31 8 -38 -3z"/>
<path d="M1150 266 c-16 -20 -9 -60 12 -64 20 -4 53 42 44 63 -7 19 -40 19
-56 1z m44 -5 c9 -13 -3 -39 -20 -45 -20 -8 -29 20 -14 39 14 17 26 19 34 6z"/>
<path d="M1224 268 c-4 -7 -3 -8 4 -4 15 9 15 -4 2 -38 -13 -36 -6 -32 19 9
27 46 44 46 35 0 -6 -31 -4 -34 12 -28 10 4 13 8 6 11 -7 2 -9 15 -5 33 6 31
-12 40 -35 17 -9 -9 -12 -9 -12 0 0 15 -17 16 -26 0z"/>
<path d="M923 183 c-7 -2 -13 -10 -13 -16 0 -8 4 -7 12 1 7 7 20 12 29 12 16
0 16 -4 -3 -60 -18 -54 -23 -60 -42 -54 -20 6 -20 5 -4 -12 24 -24 35 -12 58
62 15 51 22 60 46 65 22 5 17 7 -21 7 -27 0 -56 -2 -62 -5z"/>
<path d="M1274 155 c-7 -19 -14 -38 -14 -42 -1 -13 -38 -53 -49 -53 -15 0 -14
26 2 42 8 8 11 21 7 32 -6 19 -7 19 -15 0 -4 -10 -8 -22 -7 -26 1 -4 -3 -19
-8 -32 -11 -31 1 -41 30 -26 15 8 20 8 20 -2 1 -7 8 1 17 17 10 17 17 32 16
35 -1 3 7 6 17 7 16 1 18 -2 9 -24 -7 -18 -6 -30 1 -37 5 -5 10 -8 11 -5 8 64
7 79 -6 79 -8 0 -17 5 -20 10 -8 13 3 50 15 50 5 0 6 -7 3 -17 -4 -11 -3 -14
5 -9 17 10 15 36 -4 36 -8 0 -22 -16 -30 -35z"/>
<path d="M340 165 c-26 -32 18 -71 48 -42 14 15 14 18 -3 37 -22 24 -29 25
-45 5z"/>
<path d="M1020 114 c0 -10 -12 -31 -27 -47 -16 -15 -21 -26 -12 -22 9 3 26 19
38 35 24 33 48 41 36 13 -16 -40 -18 -56 -5 -51 14 4 24 78 10 78 -4 0 -15 3
-24 6 -11 4 -16 0 -16 -12z"/>
<path d="M1094 85 c-8 -42 -1 -53 22 -35 13 12 17 11 25 -1 8 -12 13 -6 10 13
0 4 4 19 9 33 5 14 6 25 0 25 -5 0 -11 -8 -15 -19 -7 -22 -45 -59 -45 -43 0 6
4 22 10 36 6 16 6 26 0 26 -5 0 -12 -16 -16 -35z"/>
<path d="M343 54 c-8 -21 13 -42 28 -27 13 13 5 43 -11 43 -6 0 -13 -7 -17
-16z"/>
</g>
</svg>
